<?xml version="1.0" encoding="UTF-8"?>
<svg id="_レイヤー_2" data-name="レイヤー 2" xmlns="http://www.w3.org/2000/svg" viewBox="0 0 5045.63 2175.31">
  <g id="_レイヤー_3" data-name="レイヤー 3">
    <g>
      <g>
        <path d="M3015.34,1238.43c-57.84,0-111.73-21.63-151.74-60.9-41.29-40.52-64.02-96.81-64.02-158.48v-196.81h102.02v191.39c0,72.19,50.5,124.58,120.07,124.58h77.64c67.33,0,120.07-54.33,120.07-123.68v-192.29h101.12v197.71c0,122.51-94.78,218.47-215.77,218.47h-89.37Z"/>
        <path d="M3493.2,1490.3c-43.9,0-80.72-13.01-106.47-37.63-26.62-25.45-40.69-62.7-40.69-107.72v-41.53h101.12v34.31c0,37.57,18.07,55.07,56.87,55.07h200.42c33.97,0,59.58-26,59.58-60.48v-102.82c-18,6.54-38.55,9.83-61.39,9.83h-208.54c-42.36,0-80.61-15.08-107.7-42.47-27.46-27.76-41.73-65.57-41.26-109.35l.9-112.81c.48-42.07,15.46-80.55,42.16-108.4,27.24-28.41,65.17-44.06,106.8-44.06h216.67c42.05,0,81.21,15.15,110.26,42.66,29.62,28.05,45.93,66.44,45.93,108.1l-.9,365.66c0,86.43-65.2,151.63-151.67,151.63h-222.08ZM3509.45,920.65c-35.51,0-62.29,26.39-62.29,61.39v99.3c0,37.86,23.52,61.39,61.39,61.39h192.29c43.7,0,63.19-18.93,63.19-61.39v-99.3c0-35-26-61.39-60.48-61.39h-194.1Z"/>
        <path d="M4353.82,1238.2v-120.07h-298.82c-44.99,0-86.2-16.36-116.04-46.08-29.96-29.83-46.46-71.18-46.46-116.43v-133.16h104.73v124.13c0,37.46,29.34,66.8,66.8,66.8h289.79v-190.71h102.92v415.51h-102.92Z"/>
        <path d="M4938.09,822.24l-75.5,276.45c-9.5,33.65-17.33,33.65-24.9,33.65l-148.35.23c-5.52,0-15.8,0-24.87-33.57l-74.94-276.54h-108.13l83.88,303.1c10.85,39.45,24.58,66.33,43.2,84.58,19.26,18.88,43.65,28.05,74.55,28.05l160.98-.23c30.9,0,55.28-9.18,74.55-28.05,18.62-18.25,32.35-45.13,43.2-84.56l83.88-303.13h-107.55Z"/>
      </g>
      <g>
        <path d="M3933.21,1490.3v-178.2h73.11v23.98h-49.14v130.24h49.14v23.98h-73.11Z"/>
        <path d="M4158.47,1413.63h-92.35v29.01c0,14.8,10.66,25.16,24.57,25.16h106.56v22.5h-109.52c-25.75,0-45.88-19.24-45.88-44.99v-87.62c0-25.75,19.83-45.58,45.58-45.58h71.04c25.75,0,45.29,18.94,45.29,44.7v11.84c0,25.46-19.54,44.99-45.29,44.99ZM4179.48,1359.17c0-14.21-10.36-24.57-24.57-24.57h-64.23c-13.91,0-24.57,10.36-24.57,24.57v34.34h88.8c14.21,0,24.57-10.66,24.57-24.86v-9.47Z"/>
        <path d="M4360.04,1456.85c-6.51,23.68-16.58,33.45-34.04,33.45h-22.5c-17.46,0-27.53-9.77-34.04-33.45l-39.07-141.19,24.27-5.92,38.18,140.9c2.96,10.95,7.1,14.5,12.73,14.5h18.35c5.92,0,9.47-2.96,12.73-14.5l38.48-140.9,23.98,5.92-39.07,141.19Z"/>
        <path d="M4542.37,1413.63h-92.35v29.01c0,14.8,10.66,25.16,24.57,25.16h106.56v22.5h-109.52c-25.75,0-45.88-19.24-45.88-44.99v-87.62c0-25.75,19.83-45.58,45.58-45.58h71.04c25.75,0,45.29,18.94,45.29,44.7v11.84c0,25.46-19.54,44.99-45.29,44.99ZM4563.39,1359.17c0-14.21-10.36-24.57-24.57-24.57h-64.23c-13.91,0-24.57,10.36-24.57,24.57v34.34h88.8c14.21,0,24.57-10.66,24.57-24.86v-9.47Z"/>
        <path d="M4756.97,1490.3v-110.41c0-23.68-18.35-44.4-42.62-44.4h-69.86v154.81h-24.27v-178.49h97.68c35.82,0,63.05,30.49,63.05,64.83v113.67h-23.98Z"/>
        <path d="M4880.4,1337.26v153.03h-24.86v-153.03h-47.95v-23.68h47.95v-37.54h24.86v37.54h46.77v23.68h-46.77Z"/>
        <path d="M4956.76,1490.3v-23.98h48.84v-132.61h-48.84v-23.98h72.82v180.56h-72.82Z"/>
      </g>
    </g>
    <g>
      <path d="M2314.57,196.85C2176.28,65.13,1997.02.01,1817.85,0c-183.7-.01-367.31,68.44-506.74,203.72.06.01,64.57,60.86,152.09,144.18.01.01.03.01.05,0,94.85-88.64,221.35-138.62,354.59-138.61,133.07,0,258.22,49.41,352.39,139.11,50.67,48.26,90.02,105.59,116.97,170.39,26.23,63.07,39.61,130.21,39.75,199.53.14,69.63-13.07,137.19-39.27,200.81-27.04,65.65-66.77,123.94-118.09,173.23l-1.52,1.46-1.49,1.49-7.59,7.59-695.76-661.43-147.31,148.74,695.03,660.74-.37.37,151.79,144.2,152.2-152.2c296.46-284.74,294.66-765.79,0-1046.45Z"/>
      <path d="M1181.73,1907.38l-611.41-611.41c-50.41,48.25-100.82,96.5-151.23,144.76l653.66,653.66c107.9,107.9,282.83,107.9,390.72,0l654.47-654.47-151.79-144.2-611.66,611.66c-47.71,47.71-125.07,47.71-172.78,0Z"/>
      <path d="M369.66,1095.31l-1.49-1.49-1.52-1.46c-51.32-49.29-91.05-107.57-118.09-173.23-26.2-63.62-39.41-131.18-39.27-200.81.14-69.33,13.52-136.46,39.75-199.53,26.95-64.8,66.31-122.12,116.98-170.39,94.18-89.71,219.32-139.11,352.38-139.11,151.41,0,294.12,64.49,391.55,176.94l8.71,10.05-695.87,663.37,183.66,183.66h557.03v513.69c0,27.75,11.02,54.37,30.65,73.99h0c40.87,40.87,107.12,40.87,147.99,0h0c19.63-19.62,30.65-46.24,30.65-74v-513.69h538.99l-220.31-209.29h-318.68v-291.21l-104.64-104.64-104.64,104.64v291.21h-409.84l502.22-479.4.03.03,164.14-161.18-151.89-144.3C1124.82,83.79,921.63,0,718.39,0,539.2,0,359.98,65.12,221.67,196.85c-294.66,280.66-296.46,761.71,0,1046.45l153.02,153.02,151.23-144.76-156.25-156.25Z"/>
    </g>
  </g>
</svg>