<?xml version="1.0" encoding="UTF-8"?>
<svg id="_レイヤー_2" data-name="レイヤー 2" xmlns="http://www.w3.org/2000/svg" xmlns:xlink="http://www.w3.org/1999/xlink" viewBox="0 0 5045.63 2175.31">
  <defs>
    <style>
      .cls-1 {
        fill: url(#_名称未設定グラデーション_75);
      }
    </style>
    <linearGradient id="_名称未設定グラデーション_75" data-name="名称未設定グラデーション 75" x1="0" y1="1087.66" x2="5045.63" y2="1087.66" gradientUnits="userSpaceOnUse">
      <stop offset="0" stop-color="#b583ff"/>
      <stop offset=".14" stop-color="#b97ef6"/>
      <stop offset=".36" stop-color="#c673e1"/>
      <stop offset=".63" stop-color="#db5fbd"/>
      <stop offset=".94" stop-color="#f8458b"/>
      <stop offset="1" stop-color="#ff4081"/>
    </linearGradient>
  </defs>
  <g id="_レイヤー_3" data-name="レイヤー 3">
    <path class="cls-1" d="M3015.34,1238.43c-57.84,0-111.73-21.63-151.74-60.9-41.29-40.52-64.02-96.81-64.02-158.48v-196.81h102.02v191.39c0,72.19,50.5,124.58,120.07,124.58h77.64c67.33,0,120.07-54.33,120.07-123.68v-192.29h101.12v197.71c0,122.51-94.78,218.47-215.77,218.47h-89.37ZM3715.28,1490.3c86.47,0,151.67-65.2,151.67-151.63l.9-365.66c0-41.66-16.31-80.05-45.93-108.1-29.05-27.51-68.2-42.66-110.26-42.66h-216.67c-41.63,0-79.56,15.65-106.8,44.06-26.7,27.85-41.68,66.33-42.16,108.4l-.9,112.81c-.47,43.78,13.79,81.59,41.26,109.35,27.1,27.39,65.35,42.47,107.7,42.47h208.54c22.84,0,43.39-3.3,61.39-9.83v102.82c0,34.48-25.61,60.48-59.58,60.48h-200.42c-38.8,0-56.87-17.5-56.87-55.07v-34.31h-101.12v41.53c0,45.02,14.07,82.27,40.69,107.72,25.75,24.62,62.57,37.63,106.47,37.63h222.08ZM3703.55,920.65c34.48,0,60.48,26.39,60.48,61.39v99.3c0,42.45-19.49,61.39-63.19,61.39h-192.29c-37.86,0-61.39-23.52-61.39-61.39v-99.3c0-35,26.78-61.39,62.29-61.39h194.1ZM4456.74,1238.2v-415.51h-102.92v190.71h-289.79c-37.46,0-66.8-29.34-66.8-66.8v-124.13h-104.73v133.16c0,45.25,16.5,86.6,46.46,116.43,29.84,29.71,71.05,46.08,116.04,46.08h298.82v120.07h102.92ZM4938.09,822.24l-75.5,276.45c-9.5,33.65-17.33,33.65-24.9,33.65l-148.35.23c-5.52,0-15.8,0-24.87-33.57l-74.94-276.54h-108.13l83.88,303.1c10.85,39.45,24.58,66.33,43.2,84.58,19.26,18.88,43.65,28.05,74.55,28.05l160.98-.23c30.9,0,55.28-9.18,74.55-28.05,18.62-18.25,32.35-45.13,43.2-84.56l83.88-303.13h-107.55ZM4414.27,1488.79v-31.97h-38.48v31.97h38.48ZM4608.44,1489.68v-23.68h-87.62c-21.61,0-37-15.98-37-35.82v-59.79c0-22.2,16.87-35.82,36.71-35.82h87.91v-23.09h-91.76c-31.38,0-57.13,22.5-57.13,56.24v65.42c0,31.08,24.87,56.54,58.61,56.54h90.28ZM4794.33,1423.67v-46.47c0-36.11-27.82-66.31-65.42-66.31h-30.19c-35.82,0-65.12,27.53-65.12,66.6v46.18c0,38.78,29.3,66.3,65.12,66.3h30.19c37.59,0,65.42-30.19,65.42-66.3ZM4770.65,1422.19c0,23.98-18.65,44.7-43.22,44.7h-26.94c-24.27,0-43.22-18.65-43.22-44.99v-42.62c0-26.64,18.94-45.58,43.22-45.58h26.94c24.57,0,43.22,21.31,43.22,44.99v43.51ZM5045.63,1489.68v-121.07c0-31.67-21.9-57.42-56.54-57.42h-162.21v178.79h23.68v-155.4h74.59v155.11h22.5v-155.11h39.37c22.2,0,35.22,16.87,35.22,36.7v118.4h23.38ZM2314.57,196.85C2176.28,65.13,1997.02.01,1817.85,0c-183.7-.01-367.31,68.44-506.74,203.72.06.01,64.57,60.86,152.09,144.18.01.01.03.01.05,0,94.85-88.64,221.35-138.62,354.59-138.61,133.07,0,258.22,49.41,352.39,139.11,50.67,48.26,90.02,105.59,116.97,170.39,26.23,63.07,39.61,130.21,39.75,199.53.14,69.63-13.07,137.19-39.27,200.81-27.04,65.65-66.77,123.94-118.09,173.23l-1.52,1.46-1.49,1.49-7.59,7.59-695.76-661.43-147.31,148.74,695.03,660.74-.37.37,151.79,144.2,152.2-152.2c296.46-284.74,294.66-765.79,0-1046.45ZM1181.73,1907.38l-611.41-611.41c-50.41,48.25-100.82,96.5-151.23,144.76l653.66,653.66c107.9,107.9,282.83,107.9,390.72,0l654.47-654.47-151.79-144.2-611.66,611.66c-47.71,47.71-125.07,47.71-172.78,0ZM369.66,1095.31l-1.49-1.49-1.52-1.46c-51.32-49.29-91.05-107.57-118.09-173.23-26.2-63.62-39.41-131.18-39.27-200.81.14-69.33,13.52-136.46,39.75-199.53,26.95-64.8,66.31-122.12,116.98-170.39,94.18-89.71,219.32-139.11,352.38-139.11,151.41,0,294.12,64.49,391.55,176.94l8.71,10.05-695.87,663.37,183.66,183.66h557.03v513.69c0,27.75,11.02,54.37,30.65,73.99h0c40.87,40.87,107.12,40.87,147.99,0h0c19.63-19.62,30.65-46.24,30.65-74v-513.69h538.99l-220.31-209.29h-318.68v-291.21l-104.64-104.64-104.64,104.64v291.21h-409.84l502.22-479.4.03.03,164.14-161.18-151.89-144.3C1124.82,83.79,921.63,0,718.39,0,539.2,0,359.98,65.12,221.67,196.85c-294.66,280.66-296.46,761.71,0,1046.45l153.02,153.02,151.23-144.76-156.25-156.25Z"/>
  </g>
</svg>