<?xml version="1.0" encoding="UTF-8"?>
<svg id="_レイヤー_2" data-name="レイヤー 2" xmlns="http://www.w3.org/2000/svg" xmlns:xlink="http://www.w3.org/1999/xlink" viewBox="0 0 2053.41 1761.19">
  <defs>
    <style>
      .cls-1 {
        fill: url(#_名称未設定グラデーション_75);
      }
    </style>
    <linearGradient id="_名称未設定グラデーション_75" data-name="名称未設定グラデーション 75" x1="0" y1="880.59" x2="2053.41" y2="880.59" gradientUnits="userSpaceOnUse">
      <stop offset="0" stop-color="#b583ff"/>
      <stop offset=".14" stop-color="#b97ef6"/>
      <stop offset=".36" stop-color="#c673e1"/>
      <stop offset=".63" stop-color="#db5fbd"/>
      <stop offset=".94" stop-color="#f8458b"/>
      <stop offset="1" stop-color="#ff4081"/>
    </linearGradient>
  </defs>
  <g id="_レイヤー_3" data-name="レイヤー 3">
    <path class="cls-1" d="M1873.94,1006.61l-123.23,123.23-122.89-116.74.3-.3-562.71-534.95,119.26-120.42,563.3,535.51,6.14-6.14,1.21-1.21,1.23-1.18c41.55-39.91,73.72-87.09,95.61-140.25,21.21-51.51,31.91-106.21,31.79-162.58-.12-56.13-10.95-110.48-32.18-161.55-21.82-52.46-53.68-98.87-94.71-137.95-76.24-72.62-177.57-112.62-285.3-112.63-107.88,0-210.29,40.45-287.09,112.22-.01,0-.03,0-.04,0-70.86-67.46-123.09-116.72-123.14-116.73C1174.39,55.41,1323.05,0,1471.78,0c145.06,0,290.2,52.73,402.16,159.38,238.56,227.23,240.02,616.7,0,847.23ZM956.76,1544.27l-495.01-495.01c-40.81,39.07-81.62,78.13-122.44,117.2l529.22,529.22c87.36,87.36,228.99,87.36,316.34,0l529.88-529.88-122.89-116.74-495.22,495.22c-38.63,38.63-101.26,38.63-139.88,0ZM299.29,886.79l-1.21-1.21-1.23-1.18c-41.55-39.91-73.72-87.09-95.61-140.25-21.21-51.51-31.91-106.21-31.79-162.58.12-56.13,10.95-110.48,32.18-161.55,21.82-52.46,53.68-98.87,94.71-137.95,76.25-72.63,177.57-112.63,285.29-112.63,122.58,0,238.13,52.21,317.01,143.25l7.05,8.14L342.3,857.91l148.7,148.7h450.99v415.89c0,22.47,8.93,44.02,24.81,59.91h0c33.09,33.09,86.73,33.09,119.82,0h0c15.89-15.89,24.82-37.44,24.82-59.91v-415.89h436.38l-178.37-169.45h-258.01v-235.77l-84.72-84.72-84.72,84.72v235.77h-331.82l406.61-388.13.02.03,132.89-130.49-122.98-116.83C910.68,67.84,746.17,0,581.63,0,436.55,0,291.45,52.72,179.47,159.38c-238.56,227.23-240.02,616.7,0,847.23l123.89,123.89,122.44-117.2-126.51-126.51Z"/>
  </g>
</svg>