<?xml version="1.0" encoding="UTF-8"?>
<svg id="_レイヤー_2" data-name="レイヤー 2" xmlns="http://www.w3.org/2000/svg" xmlns:xlink="http://www.w3.org/1999/xlink" viewBox="0 0 2246.06 668.06">
  <defs>
    <style>
      .cls-1 {
        fill: url(#_名称未設定グラデーション_75);
      }
    </style>
    <linearGradient id="_名称未設定グラデーション_75" data-name="名称未設定グラデーション 75" x1="0" y1="334.03" x2="2246.06" y2="334.03" gradientUnits="userSpaceOnUse">
      <stop offset="0" stop-color="#b583ff"/>
      <stop offset=".14" stop-color="#b97ef6"/>
      <stop offset=".36" stop-color="#c673e1"/>
      <stop offset=".63" stop-color="#db5fbd"/>
      <stop offset=".94" stop-color="#f8458b"/>
      <stop offset="1" stop-color="#ff4081"/>
    </linearGradient>
  </defs>
  <g id="_レイヤー_3" data-name="レイヤー 3">
    <path class="cls-1" d="M215.77,416.19c-57.84,0-111.73-21.63-151.74-60.9C22.74,314.76,0,258.48,0,196.81V0h102.02v191.39c0,72.19,50.5,124.58,120.07,124.58h77.64c67.33,0,120.07-54.33,120.07-123.68V0h101.12v197.71c0,122.51-94.78,218.47-215.77,218.47h-89.37ZM915.71,668.06c86.47,0,151.67-65.2,151.67-151.63l.9-365.66c0-41.66-16.31-80.05-45.93-108.1C993.3,15.15,954.15,0,912.1,0h-216.67c-41.63,0-79.56,15.65-106.8,44.06-26.7,27.85-41.68,66.33-42.16,108.4l-.9,112.81c-.47,43.78,13.79,81.59,41.26,109.35,27.1,27.39,65.35,42.47,107.7,42.47h208.54c22.84,0,43.39-3.3,61.39-9.83v102.82c0,34.48-25.61,60.48-59.58,60.48h-200.42c-38.8,0-56.87-17.5-56.87-55.07v-34.31h-101.12v41.53c0,45.02,14.07,82.27,40.69,107.72,25.75,24.62,62.57,37.63,106.47,37.63h222.08ZM903.97,98.41c34.48,0,60.48,26.39,60.48,61.39v99.3c0,42.45-19.49,61.39-63.19,61.39h-192.29c-37.86,0-61.39-23.52-61.39-61.39v-99.3c0-35,26.78-61.39,62.29-61.39h194.1ZM1657.17,415.96V.45h-102.92v190.71h-289.79c-37.46,0-66.8-29.34-66.8-66.8V.23h-104.73v133.16c0,45.25,16.5,86.6,46.46,116.43,29.84,29.71,71.05,46.08,116.04,46.08h298.82v120.07h102.92ZM2138.51,0l-75.5,276.45c-9.5,33.65-17.33,33.65-24.9,33.65l-148.35.23c-5.52,0-15.8,0-24.87-33.57L1789.95.23h-108.13l83.88,303.1c10.85,39.45,24.58,66.33,43.2,84.58,19.26,18.88,43.65,28.05,74.55,28.05l160.98-.23c30.9,0,55.28-9.18,74.55-28.05,18.62-18.25,32.35-45.13,43.2-84.56L2246.06,0h-107.55ZM1614.69,666.55v-31.97h-38.48v31.97h38.48ZM1808.87,667.44v-23.68h-87.62c-21.61,0-37-15.98-37-35.82v-59.79c0-22.2,16.87-35.82,36.71-35.82h87.91v-23.09h-91.76c-31.38,0-57.13,22.5-57.13,56.24v65.42c0,31.08,24.87,56.54,58.61,56.54h90.28ZM1994.76,601.43v-46.47c0-36.11-27.82-66.31-65.42-66.31h-30.19c-35.82,0-65.12,27.53-65.12,66.6v46.18c0,38.78,29.3,66.3,65.12,66.3h30.19c37.59,0,65.42-30.19,65.42-66.3ZM1971.08,599.95c0,23.98-18.65,44.7-43.22,44.7h-26.94c-24.27,0-43.22-18.65-43.22-44.99v-42.62c0-26.64,18.94-45.58,43.22-45.58h26.94c24.57,0,43.22,21.31,43.22,44.99v43.51ZM2246.06,667.44v-121.07c0-31.67-21.9-57.42-56.54-57.42h-162.21v178.79h23.68v-155.4h74.59v155.11h22.5v-155.11h39.37c22.2,0,35.22,16.87,35.22,36.7v118.4h23.38Z"/>
  </g>
</svg>